<svg xmlns="http://www.w3.org/2000/svg" version="1.1" xmlns:xlink="http://www.w3.org/1999/xlink" xmlns:svgjs="http://svgjs.dev/svgjs" width="1000" height="356" viewBox="0 0 1000 356"><g transform="matrix(1,0,0,1,-0.6060606060606233,-0.4059251384750837)"><svg viewBox="0 0 396 141" data-background-color="#8abcd7" preserveAspectRatio="xMidYMid meet" height="356" width="1000" xmlns="http://www.w3.org/2000/svg" xmlns:xlink="http://www.w3.org/1999/xlink"><g id="tight-bounds" transform="matrix(1,0,0,1,0.2400000000000091,0.1607737205758042)"><svg viewBox="0 0 395.52 140.6784525588484" height="140.6784525588484" width="395.52"><g><svg viewBox="0 0 677.7682157883077 241.06842584615381" height="140.6784525588484" width="395.52"><g transform="matrix(1,0,0,1,0,33.316982153846155)"><svg viewBox="0 0 395.52 174.4344615384615" height="174.4344615384615" width="395.52"><g id="textblocktransform"><svg viewBox="0 0 395.52 174.4344615384615" height="174.4344615384615" width="395.52" id="textblock"><g><svg viewBox="0 0 395.52 174.4344615384615" height="174.4344615384615" width="395.52"><g transform="matrix(1,0,0,1,0,0)"><svg width="395.52" viewBox="3 -34.400001525878906 78 34.400001525878906" height="174.4344615384615" data-palette-color="#ffffff"><path d="M44.2 0L33.25 0 33.25-12.4Q33.25-14.7 33.43-17.13 33.6-19.55 33.8-21.2 34-22.85 34.05-23.3L34.05-23.3 33.85-23.3 27.5 0 18.85 0 12.45-23.25 12.25-23.25Q12.3-22.8 12.53-21.18 12.75-19.55 12.95-17.13 13.15-14.7 13.15-12.4L13.15-12.4 13.15 0 3 0 3-34.4 18.6-34.4 23.8-14.55 24-14.55 29.15-34.4 44.2-34.4 44.2 0ZM50.9 0L50.9-34.4 80.65-34.4 80.65-26.15 61.95-26.15 61.95-21.4 77.95-21.4 77.95-13.5 61.95-13.5 61.95-8.25 81-8.25 81 0 50.9 0Z" opacity="1" transform="matrix(1,0,0,1,0,0)" fill="#ffffff" class="wordmark-text-0" data-fill-palette-color="primary" id="text-0"></path></svg></g></svg></g></svg></g></svg></g><g transform="matrix(1,0,0,1,436.6997899421538,0)"><svg viewBox="0 0 241.06842584615381 241.06842584615381" height="241.06842584615381" width="241.06842584615381"><g data-palette-color="#ffffff"><rect width="65.8920363979487" height="241.06842584615381" fill="#ffffff" stroke="transparent" data-fill-palette-color="accent" x="0" fill-opacity="1"></rect><rect width="65.8920363979487" height="241.06842584615381" fill="#ffffff" stroke="transparent" data-fill-palette-color="accent" x="80.35614194871793" fill-opacity="0.75"></rect><rect width="65.8920363979487" height="241.06842584615381" fill="#ffffff" stroke="transparent" data-fill-palette-color="accent" x="160.71228389743587" fill-opacity="0.5"></rect></g></svg></g></svg></g><defs></defs></svg><rect width="395.52" height="140.6784525588484" fill="none" stroke="none" visibility="hidden"></rect></g></svg></g></svg>