<svg
    id="visual"
    viewBox="0 0 960 540"
    width="960"
    height="540"
    xmlns="http://www.w3.org/2000/svg"
    version="1.1"
    preserveAspectRatio="none"
>
    <path
        d="M0 276L16 268C32 260 64 244 96 249.5C128 255 160 282 192 288.3C224 294.7 256 280.3 288 275.8C320 271.3 352 276.7 384 272.2C416 267.7 448 253.3 480 247.8C512 242.3 544 245.7 576 252.8C608 260 640 271 672 272.8C704 274.7 736 267.3 768 268.2C800 269 832 278 864 288C896 298 928 309 944 314.5L960 320L960 102L944 103.7C928 105.3 896 108.7 864 106.8C832 105 800 98 768 105.3C736 112.7 704 134.3 672 136.2C640 138 608 120 576 112.7C544 105.3 512 108.7 480 119.3C448 130 416 148 384 151.7C352 155.3 320 144.7 288 143.8C256 143 224 152 192 152.8C160 153.7 128 146.3 96 135.5C64 124.7 32 110.3 16 103.2L0 96Z"
        fill="#e1e1e1"
        class="slide-in-blurred-bottom delay-bg--5"
    ></path>
    <path
        d="M0 320L16 319C32 318 64 316 96 325.8C128 335.7 160 357.3 192 355.5C224 353.7 256 328.3 288 324.7C320 321 352 339 384 341.8C416 344.7 448 332.3 480 327.8C512 323.3 544 326.7 576 329.3C608 332 640 334 672 335.8C704 337.7 736 339.3 768 337.5C800 335.7 832 330.3 864 340.3C896 350.3 928 375.7 944 388.3L960 401L960 318L944 312.5C928 307 896 296 864 286C832 276 800 267 768 266.2C736 265.3 704 272.7 672 270.8C640 269 608 258 576 250.8C544 243.7 512 240.3 480 245.8C448 251.3 416 265.7 384 270.2C352 274.7 320 269.3 288 273.8C256 278.3 224 292.7 192 286.3C160 280 128 253 96 247.5C64 242 32 258 16 266L0 274Z"
        fill="#dcdcdc"
        class="slide-in-blurred-bottom delay-bg--4"
    ></path>
    <path
        d="M0 363L16 365.7C32 368.3 64 373.7 96 385.3C128 397 160 415 192 414.2C224 413.3 256 393.7 288 391.8C320 390 352 406 384 408.7C416 411.3 448 400.7 480 397.2C512 393.7 544 397.3 576 399.2C608 401 640 401 672 396.5C704 392 736 383 768 382C800 381 832 388 864 397.8C896 407.7 928 420.3 944 426.7L960 433L960 399L944 386.3C928 373.7 896 348.3 864 338.3C832 328.3 800 333.7 768 335.5C736 337.3 704 335.7 672 333.8C640 332 608 330 576 327.3C544 324.7 512 321.3 480 325.8C448 330.3 416 342.7 384 339.8C352 337 320 319 288 322.7C256 326.3 224 351.7 192 353.5C160 355.3 128 333.7 96 323.8C64 314 32 316 16 317L0 318Z"
        fill="#d7d7d7"
        class="slide-in-blurred-bottom delay-bg--3"
    ></path>
    <path
        d="M0 411L16 413.8C32 416.7 64 422.3 96 435C128 447.7 160 467.3 192 468.2C224 469 256 451 288 449.2C320 447.3 352 461.7 384 464.3C416 467 448 458 480 458C512 458 544 467 576 464.3C608 461.7 640 447.3 672 440.2C704 433 736 433 768 434.8C800 436.7 832 440.3 864 446.7C896 453 928 462 944 466.5L960 471L960 431L944 424.7C928 418.3 896 405.7 864 395.8C832 386 800 379 768 380C736 381 704 390 672 394.5C640 399 608 399 576 397.2C544 395.3 512 391.7 480 395.2C448 398.7 416 409.3 384 406.7C352 404 320 388 288 389.8C256 391.7 224 411.3 192 412.2C160 413 128 395 96 383.3C64 371.7 32 366.3 16 363.7L0 361Z"
        fill="#d1d1d1"
        class="slide-in-blurred-bottom delay-bg--2"
    ></path>
    <path
        d="M0 541L16 541C32 541 64 541 96 541C128 541 160 541 192 541C224 541 256 541 288 541C320 541 352 541 384 541C416 541 448 541 480 541C512 541 544 541 576 541C608 541 640 541 672 541C704 541 736 541 768 541C800 541 832 541 864 541C896 541 928 541 944 541L960 541L960 469L944 464.5C928 460 896 451 864 444.7C832 438.3 800 434.7 768 432.8C736 431 704 431 672 438.2C640 445.3 608 459.7 576 462.3C544 465 512 456 480 456C448 456 416 465 384 462.3C352 459.7 320 445.3 288 447.2C256 449 224 467 192 466.2C160 465.3 128 445.7 96 433C64 420.3 32 414.7 16 411.8L0 409Z"
        fill="#cbcbcb"
        class="slide-in-blurred-bottom delay-bg--1"
    ></path>
</svg>
